# xmcd
#
# Track frame offsets:
#	150
#	12792
#	34509
#	49702
#	69285
#	84245
#	111634
#	128275
#	145842
#	159479
#	177973
#	196335
#	212158
#	230248
#	244840
#	264964
#	276657
#
# Disc length: 3843 seconds
#
# Revision: 0
# Processed by: cddbd v1.4PL0 Copyright (c) Steve Scherf et al.
# Submitted via: EasyCDDAExtractor 5.0.5.1
#
DISCID=eb0f0111
DTITLE=Various Artist - Canto e Encanto Nativo - Vol. 8
DYEAR=1900
DGENRE=Nativa
TTITLE0=Omair Trindade - Prece de Gaúcho
TTITLE1=chiquito and Grupo Bordoneio - Teia de Luz
TTITLE2=Adair de Freitas - Vento Chucro
TTITLE3=Tchê Garotos - Conheça o Rio Grande
TTITLE4=Pedro Ortaça - Janelas da Liberdade
TTITLE5=Grupo Raizes - Ronda de Tropa
TTITLE6=Xiruzinho - Purajhei Missioneiro
TTITLE7=Os Farrapos and Ledo Silva - Garrão do Pampa
TTITLE8=Antonio Gringo - Recuerdos de Taragui
TTITLE9=Os Mateadores - Depois da Lida
TTITLE10=Cesar Passarinho - Corcoveando
TTITLE11=Fogo de Chão - Regresso de Carreteiro
TTITLE12=Luiz Carlos Borges - My Hijo Me ha pedido un chamame
TTITLE13=João Chagas Leite - Sina aprendiz
TTITLE14=Grupo Candeeiro - Rio Grande Tche
TTITLE15=Quero-Quero - Gineteada e marcação
TTITLE16=Jayme Caetano Braun - Volvendo
EXTD=
EXTT0=
EXTT1=
EXTT2=
EXTT3=
EXTT4=
EXTT5=
EXTT6=
EXTT7=
EXTT8=
EXTT9=
EXTT10=
EXTT11=
EXTT12=
EXTT13=
EXTT14=
EXTT15=
EXTT16=
PLAYORDER=
